<?xml version="1.0" encoding="UTF-8"?><svg id="Calque_2" xmlns="http://www.w3.org/2000/svg" viewBox="0 0 472.12 473.45"><g id="Objects"><path d="M461.39,366.37l-88.38-88.38c-6.92-6.92-16.12-10.73-25.9-10.73s-18.98,3.81-25.9,10.73l-30.33,30.33c-12.37-5.43-42.97-20.78-72.85-50.66-30.25-30.25-47.77-63.38-54.06-76.61l30.16-30.15c6.91-6.92,10.72-16.12,10.72-25.9s-3.81-18.98-10.72-25.89L105.75,10.73C98.83,3.81,89.63,0,79.85,0s-18.99,3.81-25.91,10.73l-24.73,24.73C28.04,36.63.58,64.71,0,119.11c-.33,31.16,8.24,64.73,25.49,99.77,21.16,43.02,55.61,88.55,102.38,135.31,44.53,44.54,88.17,77.07,129.69,96.7,31.71,14.98,62.33,22.56,91.13,22.56,1.94,0,3.87-.03,5.8-.1,53.02-1.9,80.99-29.28,82.15-30.45l24.74-24.74c6.92-6.91,10.73-16.11,10.73-25.89s-3.81-18.98-10.73-25.9ZM447.25,404.02l-24.7,24.7c-.25.24-24.56,23.55-70.31,24.69-27.17.67-56.53-6.45-87.29-21.16-39.09-18.7-80.45-49.72-122.93-92.2-44.74-44.74-77.69-88.04-97.94-128.71-15.95-32.04-24.05-62.43-24.08-90.35-.05-46.9,22.44-70.45,23.35-71.39l24.74-24.73c3.14-3.14,7.31-4.87,11.76-4.87s8.61,1.73,11.75,4.87l88.38,88.38c3.14,3.14,4.87,7.31,4.87,11.75s-1.73,8.62-4.87,11.76l-35.03,35.03c-2.84,2.84-3.7,7.09-2.2,10.81.77,1.92,19.43,47.49,61.14,89.2,41.87,41.88,84.26,57.1,86.05,57.72,3.63,1.28,7.66.36,10.38-2.36l35.03-35.03c3.14-3.14,7.32-4.87,11.76-4.87s8.62,1.73,11.76,4.87l88.38,88.38c3.14,3.14,4.87,7.32,4.87,11.76s-1.73,8.61-4.87,11.75Z"/><path d="M452.12,392.27c0,4.44-1.73,8.61-4.87,11.75l-24.7,24.7c-.25.24-24.56,23.55-70.31,24.69-27.17.67-56.53-6.45-87.29-21.16-39.09-18.7-80.45-49.72-122.93-92.2-44.74-44.74-77.69-88.04-97.94-128.71-15.95-32.04-24.05-62.43-24.08-90.35-.05-46.9,22.44-70.45,23.35-71.39l24.74-24.73c3.14-3.14,7.31-4.87,11.76-4.87s8.61,1.73,11.75,4.87l88.38,88.38c3.14,3.14,4.87,7.31,4.87,11.75s-1.73,8.62-4.87,11.76l-35.03,35.03c-2.84,2.84-3.7,7.09-2.2,10.81.77,1.92,19.43,47.49,61.14,89.2,41.87,41.88,84.26,57.1,86.05,57.72,3.63,1.28,7.66.36,10.38-2.36l35.03-35.03c3.14-3.14,7.32-4.87,11.76-4.87s8.62,1.73,11.76,4.87l88.38,88.38c3.14,3.14,4.87,7.32,4.87,11.76Z"/></g></svg>