<?xml version="1.0" encoding="UTF-8"?>
<svg id="Graphic_elements" xmlns="http://www.w3.org/2000/svg" version="1.1" viewBox="0 0 1040.5 593.9">
  <!-- Generator: Adobe Illustrator 29.8.2, SVG Export Plug-In . SVG Version: 2.1.1 Build 3)  -->
  <path d="M517.5,593.9c2.2-15.3,4.2-30.6,6.7-45.8,4.2-25.9,9.1-51.6,13-77.5s6.8-52,10.4-77.9c1.3-9.5,3.6-18.8,5.3-28.2.9-5.1,2.2-10.1,2.3-15.2,0-2.4-1.6-5.5-3.5-7.2-5.8-5.2-12-9.7-18-14.6-1.5-1.2-3-2.6-4-4.2-8.4-12.3-14.6-25.8-19.7-39.7-4.9-13.1-7.2-26.9-5.6-40.9.8-6.8,2.5-13.6,4.2-20.2,1.5-5.9,4.5-10.8,11.1-11.4-5.6-20.2-11-40.1-12.3-60.6-.9-15.8.9-31.2,7.5-46.6,9.2-21.6,23.8-38.8,39-56,5-5.7,10.4-11.2,16.3-15.9,4.8-3.7,10.7-6,16-9,9.5-5.2,19.1-10.5,28.7-15.7,1-.5,2.3-1.3,3.2-1.1,11.7,2.7,22.8-2.4,34.3-2.3,14.7.1,29.3,1,43.2,7.2,3.8,1.7,8.4,1.3,12.3,2.6,6,2.1,12.3,4.1,17.6,7.5,10.8,7,21.6,14.2,31.2,22.7,8.9,7.9,16.2,17.5,22.5,27.9,11,18.2,17.6,37.7,20.2,58.9,2.2,18.1,1,35.7-3.5,53.1-2.2,8.3-6.3,16.1-9.9,23.9-1.6,3.5-2.1,5.6,2.4,7.1,5.1,1.7,5.8,6.6,5.6,11-.7,16.7-.9,33.4-2.9,50-1.4,11.4-4.7,22.8-8.4,33.7-4,11.6-9.8,22.7-14.5,34.1-1.3,3.1-1.8,6.7-1.7,10.1.5,15.2,3.2,30.1,6.1,45,2.8,14.1,4.1,28.5,6.4,42.7,2.3,14.3,5.4,28.5,7.4,42.8,1.7,11.8,2.1,23.7,3.3,35.6,1.3,13.3,2.9,26.7,4.1,40,1,11.4,1.7,22.8,2.5,34.1h-7c-1.7-18.7-3.2-37.3-5-56-2.1-21-4.3-42-6.8-63-1.2-10.2-3.3-20.2-4.9-30.4-2.4-15.2-4.7-30.4-6.9-45.7-2.3-16.2-5-32.5-6.2-48.8-.5-6.4,1.5-13.5,4.2-19.5,3.8-8.2,10.5-14.8,12.4-24.1,2.3-11.2,6.4-22.1,7.7-33.3,1.8-15.9,1.9-32,2.5-48,0-2-1.3-4.1-2-6.1-2.1,1-4.8,1.6-6.2,3.2-5.3,6.2-7.6,13.8-9.1,21.7-2,10.2-3.9,20.5-6.3,30.7-1.8,7.8-5.6,14.5-12.7,18.9-2.7,1.6-12.5,1.4-13-.9-.6-3.2.1-7,1.4-10.1,1.4-3.3,4.4-5.9,6-9.1,1.1-2.2,1-5,1.4-7.5-.6-.3-1.1-.6-1.7-.9-1.9,1.1-3.9,2.2-5.7,3.4-2.4,1.5-4.5,3.5-7,4.7-11.9,6-21,14-26.5,26.9-6.2,14.6-6.9,29.5-6.1,44.7.5,10.4,2.3,20.7,2.1,31.1-.3,18.9-1.8,37.8-2.6,56.8-1.7,35.4-3.6,70.7-4.7,106.1-.6,18.3.3,36.8.6,55.1h-8c0-6,.3-12,.3-18-.2-14.7-1-29.5-.6-44.2.3-13.4,2.3-26.7,2.9-40.1,1.6-34.6,2.9-69.2,4.3-103.8.4-10,.3-19.9-1.3-29.9-1.5-9.4-.8-19.3-.3-28.9.6-10.4,1.3-20.9,6.5-30.3,1.3-2.4,2-5.1,2.8-7.4-29.8,10.4-60.1,9.2-91.1,4.8,2.6,3.9,5,7.2,7,10.7,7.1,11.9,6.4,25,5.5,38.1-.8,11.7-1.4,23.5-1.5,35.2-.2,16.4.2,32.8.4,49.1.2,18,.6,35.9.7,53.9.1,14,0,27.9,0,41.9,0,23,.2,46,.3,69h-10c0-13.2.2-26.5,0-39.8-.2-16.6-.9-33.2-.9-49.7,0-15.2.9-30.5.8-45.7,0-17.4-.7-34.8-.9-52.2-.1-11.8-.4-23.5.3-35.2.7-11.2,2.9-22.3,3.8-33.5,1.5-19-3.5-35-21.5-44.8-2.6-1.4-4.8-3.6-7.3-5.3-4.7-3.3-9-7.6-14.1-9.7-6.3-2.6-10.6-6.9-14.5-12.1-1.1-1.5-2.6-2.6-3.9-3.9-.5.2-1,.5-1.5.8,1,5.8,1.7,11.7,3,17.4.8,3.5-.1,5.2-3.5,4-3.2-1.2-6.7-2.8-8.8-5.3-6.9-8.3-11.6-17.7-11.4-28.8.2-11.5-1.4-22.3-8.5-31.9-1.8-2.4-3.3-3-4.8-.4-1.7,3-3,6.2-4.3,9.4-4.5,11.3-4,23.4-2.4,34.8,1.5,10.6,6.1,20.8,9.7,31.1,6.4,18.4,17,33.8,33.9,44.1,6,3.7,8.2,9,7.9,15.4-.4,9.8-1.2,19.5-1.9,29.3-.8,10.9-1.3,21.8-2.6,32.6-1.2,9.5-3.6,18.9-5.1,28.3-2.5,16.3-4.6,32.7-7,49-1.9,12.8-4.2,25.5-6.4,38.2-.8,4.7-2.3,9.3-3,14.1-2.1,16.6-4,33.2-6,49.8h-14ZM633.9,275.7c-.4-1.5-1.2-2.7-1-3.8,1-5.7,1.8-11.4,3.4-16.9,2.6-9,6.6-17.7,8.5-26.8,1.4-6.8-1-13.7-6.8-18.4-5.5-4.4-9.4-15.7-7-22.5,1.5-4.2,3.5-8.2,5.2-12.4.6-1.6,1.5-3.8,1-5.2-3.6-10.2-2.5-20.7-2-31,.2-3.9,2.5-7.7,4.4-11.4,1.1-2.2,3-3.1,5.8-1.5,4.2,2.3,8.6,4.2,13,5.7,6,2.1,8.7,6.7,9.7,12.5.9,5.5,1.1,11.3,2.7,16.6,1.3,4.2,2,9.4,8.2,10.8,5.4,1.2,5.7-3.7,8-5.8,4-3.8,13.7-5.8,18.3-2.5,4,2.8,7.3,6.5,11.3,9.4,3.7,2.7,5,6.1,4.1,10.4-1,4.4-2.5,8.8-4,13.7,3.2.6,6.7.8,9.8,2,7.5,2.9,15.1,5.9,22.3,9.5,13.8,6.9,11.9,23.4,4.5,30-1,.9-1.5,2.4-2.2,3.6.5.4.9.8,1.3,1.2,1.6-1.4,3.5-2.7,4.7-4.4,4.2-6.2,8.6-12.3,12.2-18.8,3.8-6.9,7.8-14,10.1-21.6,2.6-8.5,3.5-17.5,5-26.2,2.3-13.7,4.3-27.5,2.6-41.5-.7-5.9-1.8-11.8-3.5-17.4-1.2-3.8-4.2-5.7-8.5-3.4-2.7,1.5-5.8,3.4-8.7,3.3-7.7-.2-15.4-.8-22.8-2.4-3.8-.8-7.2-3.8-10.3-6.4-4.4-3.7-8-8.3-12.6-11.8-5-3.8-5.7-5.3-2.8-11,5.5-10.8,10.8-21.6,16.6-32.2,2.1-4,1.2-7.1-2.1-9-10.7-6.1-20.7-13.7-33.1-16.5-5.6-1.2-11.1-3.3-16.8-4.3-5.6-.9-11.4-1-17.1-1.3-1.8,0-3.7.4-6.1.6,3.5,6.9,7,12.9,9.7,19.2,6.8,15.6,5.2,27.7-14.1,31.5-6.6,1.3-13.5,1.5-20,3-12,2.8-19.7,16.8-16.6,28.9.8,3.3,2,7.6-1.9,9.4-4.7,2.3-9.8,4.1-14.9,4.9-6.3,1.1-11.5,3.5-14.4,9.1-2.8,5.2-5.3,10.6-7,16.3-3.4,11.2-6.2,22.6-9.3,33.9-1.3,4.7-8.4,8.8-12.1,6-5.9-4.4-11-9.8-16.1-15.2-2.5-2.6-3.9-6.4-6.5-8.9-5.3-5.3-7.3-11.1-6.5-18.7.6-6-.2-12.2-.6-18.2-.1-1.7-1.3-3.3-2.2-5.5-.9,1.1-1.3,1.4-1.4,1.9-7.5,25.7-6.6,51.4-.5,77.2,3.4,14.2,11.3,26.4,17.8,39.3,7.3,14.5,21.3,22.2,33.2,32.1,3,2.5,7.2,3.6,10.2,6.1,13.3,11.2,29.2,15.4,45.8,16.8,12.1,1,24.4.7,36.5-.5,7.7-.7,15.2-3.6,22.6-6.1,6.6-2.3,12.8-6.1,19.5-8,14.9-4.1,25.6-14.1,36.6-23.5-2-4.3-3.9-8-5.2-11.9-.4-1.1.3-3.8,1.2-4.1,6.5-2.8,6-8.3,6.2-13.8.2-5.2-3.6-6.1-7.3-7.3-.9-.3-1.7-1.1-2.6-1.4-5.8-2.2-11.6-4.6-17.5-6.6-3.5-1.2-7.4-1.4-11-2.4-4.2-1.2-5.3-4.4-4-8.2,1-3.1,2.7-6.1,3.8-9.2,2-5.2-1.1-11.6-6.8-14.5-3.7-1.9-7-.1-10.7,4.6-1.8,2.3-4.6,5-7.2,5.3-10.7,1.2-22.3-8-24.8-18.2-1.4-5.8-2.2-11.7-2.8-17.6-.5-5-3.4-8.7-7.9-9.7-3-.7-4.6.3-4.7,3.2-.2,7.1-1.2,14.3,0,21.1,1.5,9.7,3,18.8-3.6,27.5-1.5,2-1.8,6.1-.8,8.6,2.1,5.3,4.8,10.6,8.4,14.9,6.7,8,7.5,16.9,4.9,26.1-2.7,9.3-6.7,18.3-10.4,27.3-1.9,4.6-3.7,9.6-9.5,12.3h0ZM639.1,16.9c-5.6,1.1-12.2,3.5-18.9,3.7-12.8.4-22.5,7.8-31.4,14.7-14.5,11.3-27.6,24.7-40.1,38.3-7.4,8.1-12.4,18.3-18.2,27.6-.7,1.2-.7,3.9.2,4.7,7,6.7,8.4,15.1,8.1,24.2-.3,9.5-2.1,19.6,6.8,26.8.3.3.3,1,.6,1.4,4.1,5.1,8.3,10.3,13.2,16.4,1.3-3.2,2-4.6,2.4-6.2,2.8-10.5,5.3-21.1,8.2-31.5,4.7-16.8,13.7-29.3,32.7-31.4,5.2-.6,6.5-3,5.4-8.1-.5-2.5-1-5.3-.4-7.8,1.7-7.5,5.3-14.1,11-19.6,7.4-7.2,17-6,25.9-7.8,3.1-.6,6.3-.8,9.2-1.8,5.8-1.9,9.3-6.3,8.5-10.7-.7-4-1.8-7.9-3.1-11.7-.9-2.5-3.1-4.7-3.6-7.3-1-5.6-5-7.9-9.3-10.3-2.2-1.2-4.5-2.3-7.3-3.8h0ZM777.8,98.9s0-1-.4-1.8c-3.6-6.8-6.9-13.7-11-20.2-5-8.1-11.9-14.8-19.1-21-1.6-1.4-3.7-3-5.3,0-5,9.5-10,18.9-14.8,28.5-.5,1,.3,3.3,1.2,4.4,2.3,2.5,5.8,4.1,7.5,6.8,5.8,9.9,20.6,11.5,29,8.1,4-1.6,8-3,12.9-4.9h0ZM760.4,250c-2.3,2-4.3,3.5-6,5.3-1.8,1.9-3.3,4-4.9,5.9,5.2,6.7,5,12.1-.2,18.6-2,2.4-3.5,5.2-5.2,7.8,9-3.2,17.7-24.5,16.4-37.6h0ZM545.1,268.5c.9-3.8,2-7.4,2.7-11.1.2-1,0-2.4-.5-3.3-1.4-2.1-3.1-3.9-4.8-5.8-.6-.6-1.6-1.1-2.4-1.3-.3,0-1.2,1.2-1.2,1.8.7,7.2,1.3,14.5,6.2,19.7h0Z"/>
  <path d="M373.4,593.9c-2.2-12.3-4.3-24.6-6.5-36.9-2.4-12.8-4.9-25.7-7.2-38.5-.8-4.3-1-8.8-1.7-13.1-1.4-8.8-3.1-17.6-4.4-26.4-1.4-9.9-2.4-19.8-3.8-29.7-1.2-8.5-2.2-17-4.2-25.3-1.9-7.9-1.4-15.5-.5-23.5,1.3-11.3,1.5-22.7,2.1-33.4-6.8-1.5-13.1-2-18.6-4.3-6.4-2.7-9-8.5-6.9-15-4.3-.6-7.6-1-11.8-1.6,0,6.1,0,12.4,0,18.6,0,1.8-.1,3.7-.4,5.5-.9,6.8-1.5,7.2-8.5,7.5-5.1.2-10.2.8-15.6,1.3,1,2.4,1.9,4.5,2.9,6.7-7.8,2.6-11.3-3.8-16.2-6.2-3.7-1.9-6.5-5.3-9.9-7.9-3.8-3-3.9-4.9-.3-8.1,3.8-3.5,7.2-7.2,6.6-13-.4-3.9-3.4-7.4-7.3-7-4.9.4-9.9,1.1-14.5,2.7-2.4.9-4.9,3.8-5.8,6.3-4,11.6-2.8,22.6,4.4,33.1,5.4,7.9,9.6,16.6,14.2,25.1,3.6,6.7,7.8,13.3,10.4,20.4,6.1,16.4,9.4,33.4,8.9,51.2-.3,12.8,1.1,25.5,1.1,38.3,0,10.4-1.2,20.9-1.4,31.3-.3,13.9-.1,27.8-.1,41.8h-8c0-13-.2-26.1.1-39.1.4-14.2,1.9-28.5,1.7-42.7-.2-21.6.4-43.4-4.8-64.6-1.9-7.9-4-16-7.4-23.3-3.9-8.3-9.5-15.8-14.3-23.8-3.8-6.2-7.2-12.6-11.2-18.8-1.1-1.8-3.3-3.3-5.2-4-7-2.2-14.5-3-21.1-6.1-9.9-4.7-14.1-14.5-12.5-25.3,1.2-8.6,3.7-16.6,7.5-24.4,8.5-17.3,16.2-35,24.4-52.5,1.6-3.4.3-4-2.3-5.5-4.3-2.4-8.5-5.2-12.4-8.2-3.1-2.4-2.2-5,1-6.6,12.1-5.9,24.3-11.6,36.4-17.4,6.4-3.1,12.6-6.5,19-9.2,2.1-.9,4.4-2.2,6.2-2.3,1.8,0,4.6,2.7,5.2,4.7,2.5,8.2,4.1,16.7,6.4,24.9,2.7,9.7,5.9,19.3,8.8,28.9.3,1,.5,2.9,0,3.2-.9.6-2.5.8-3.6.5-4-1.1-7.9-2.6-11.8-3.9-1.2-.4-2.6-.4-4.1-.5-1.6,4.9-3.1,9.5-4.3,13.3,5.3,3.3,9.9,6.1,13.9,8.6,5-1.2,10.3-3.7,15.1-3.2,4.7.5,9,4.2,13.9,6.7,7.9-6.5,11.6-4.9,19.6,1.5,2.8,2.3,4.2,6.9,5.2,10.8.8,3,1.3,4.2,4.8,3.8,2-.3,4.1,1,6.8,1.8,4-7.2,7.9-14.7,12.3-21.8,3.8-6.2,8.2-12,12.5-17.9.8-1.1,3.1-2.6,3.6-2.2,1.8,1.1,4.1,2.8,4.3,4.6,1.2,9.5,1.9,19.2,2.8,28.8,0,.6,0,1.3.1,1.9,6.5,0,13,.5,19.3-.2,5.4-.6,10.6-2.4,15.8-4,2.7-.8,4.4-1.9,3.1-5.8-3.5-10.5-6.3-21.2-9.2-31.9-1.8-6.9.3-9.9,7.6-9.9,9.4,0,18.8.2,28.2,1,3.4.3,7,2.2,9.9,4.2,1.7,1.2,2.9,3.9,3.4,6.1,1.6,6.9,2.5,14,4,20.9,2.5,10.8,5.3,21.4,7.9,32.2,1.7,7.2,3.3,14.5,4.7,21.8.9,4.5-.9,7.5-5.2,9.5-10.8,5.2-22,5.6-33.6,4.5-14-1.3-28.1-2.3-42.1-3.4-3.1-.2-6.2,0-9.5,0-1.5,11.1.3,22.3-3.6,33.3-6.6-3.4-11.9-6.9-14.8-13.2-.7-1.6-2.6-2.5-3.6-4-2.7-3.9-5.2-7.9-8-11.8-1.2-1.7-2.8-3-4.9-5.3-.7,12-1.1,22.9-2,33.7-.3,4.1-1.4,8.1-2.2,12.2-1.7,8.5.1,16.5,1.7,24.8,2.8,14.7,4.1,29.6,6.2,44.4,1.3,9,3,18,4.4,27,3.1,19.8,6,39.6,9.2,59.4,1,6.2,2.8,12.4,4,18.6,1,5,1.7,10.1,2.5,15.1h-7,0ZM425.5,271.8c0,1,0,1.7.1,2.3,2.6,7.4,5.2,14.8,7.8,22.2,2.1,5.9,1,11.8.6,17.9-.2,4.3-1,6.3-5.2,6.3-14.2.1-28.4.4-42.6,0-1.9,0-4.7-2.7-5.2-4.6-1.7-6.1-2.5-12.5-3.9-19.6-10,11.3-16.9,23.4-22.5,36.5-2.4,5.5-.3,9.9,2.4,13.8,4.7,6.5,10.3,12.4,15.5,18.5,2.2,2.5,4.5,5,7.3,8.2.6-6.7,1.2-12.4,1.7-18.1.3-2.8,1.4-3.8,4.5-3.5,11.6,1,23.1,1.5,34.7,3.6,11.3,2.1,23,2,34.5,2.1,4.8,0,11.3.5,13.1-5.7,1.5-5.1,2.1-10.9,1.1-16-1.9-9.8-5-19.4-8.1-29-3.5-11.1-7.4-22.1-11.5-33.1-.6-1.5-3.1-3.4-4.7-3.4-6.6.1-13.2,1-19.9,1.5h0ZM259.4,337c-2.8-5.5-5.2-9.9-7.4-14.5-.5-1.1-.6-2.8-.2-4,2.4-6.9,5.1-13.6,7.4-20.5,2.7-8.2,5-16.5,7.8-24.7,1.1-3.2,2.5-6.2,7.2-3.7,2.6,1.4,5.8,1.8,9.1,2.8-4.1-14-8.1-27.4-12.4-41.9-15.5,7.2-31.2,14.6-47.6,22.1,4.6,3.6,8.5,6.2,11.9,9.3,1.1,1,2.1,3.6,1.6,4.9-3.1,8.1-6.6,16.2-10.2,24.1-3.5,8-7.3,15.9-10.8,23.9-2.1,4.7-4.5,9.3-5.8,14.2-2.4,8.9-5.6,18-2.8,27.4.8,2.6,2.8,5.6,5,6.8,5.1,2.5,10.7,4,16.2,5.5.7.2,2.7-1.7,3-2.9.5-2.2,0-4.6.3-6.9,1.4-9.3,4.9-17.2,15.2-19.6,3.9-.9,7.8-1.5,12.6-2.4h0ZM301.8,372.4v-24.6c-7.2.8-12.5-2.6-15.9-8.5-3.5,2.5-6.8,4.9-10.3,7.5,3.5,8.1-1.8,14.3-6.2,21,9.7,9.7,21.3,2.2,32.5,4.7h0ZM282.9,324.6c-1.4-7.7-2.3-14.1-3.7-20.3-.4-1.7-2.1-4.2-3.4-4.3-2-.2-5.8,1-6,2.2-2,8.1-10.1,15.1-5,24.7.4.7-.4,1.8-.3,2.7.2,3.8.3,8,4.3,9.9,4.1,1.9,7.4-.9,9.3-3.9,2.3-3.6,3.5-7.9,4.9-11h0ZM308.6,322.1c-.9-6.6-1.1-11.3-2.3-15.7-.5-1.7-3.5-4-5.2-3.9-2.8.2-7.1,1.6-7.9,3.6-3.6,9.9-5,20.1-.4,30.2,3.1,6.8,6.5,7.1,10.4.5,2.9-4.9,4-10.8,5.4-14.7ZM314.8,341.7c16.2-2.6,21.3-19.7,16.7-31-1.2-2.9-4.3-6.8-7.9-4.3-3.3,2.4-6.7,6.5-7.3,10.3-1.4,8.1-1.1,16.6-1.5,25h0ZM341.9,324.2c-3,5.5-5.6,10.6-8.4,15.6-1.5,2.8-3.9,5.3-4.8,8.2-1,3.4-1.7,8.2,2.4,9.7,3.4,1.2,8.4,1.1,11.4-.7,2.8-1.6,3.9-6.1,5.7-9.2-2.5-1.9-4.3-3.2-6.8-5.1,1.4-3.5,2.8-7.1,4.3-10.7,1.4-3.5-.5-7-3.8-7.8h0Z"/>
  <path d="M141.4,593.9c-.3-12.4-.7-24.9-1-37.3-.3-15-.4-30-1-45-.4-11-1.7-22.1-2.4-33.1-.4-7-.1-14.1-.7-21.1-.6-7.9-2-15.7-2.5-23.6-.8-12.6-1.2-25.3-1.5-38-.3-11,0-22.1-.2-33.1-.1-8.7,2.6-15.8,9.3-21.7,4.8-4.2,8.8-9.5,12.6-14.8-6.9,1.9-12.8-.5-18.7-2.1-4.3-1.2-6.5-5.9-6.1-11,0-.3.2-.7.1-1-1.1-5.9-2.1-11.8-3.3-17.7-.1-.6-1.3-1-2-1.4-8.3-4-13.3-10-11.8-19.9,0-.6-.2-1.2-.4-1.7-10.6,4-21.4,3-31.9,1.9-5.1-.5-6-7.4-7.5-11.9-1.5-4.5-1.6-9.4-2.2-14.2-1-7.9-4.2-14.8-9.6-20.6-1.1-1.2-3.3-1.3-5.5-1.4,2.7,7.8.2,13-5.7,17.4-1.1.8-1.5,3.2-1.6,4.8-.8,14.7,2.7,28.7,7.1,42.6,1.5,4.6.5,10.4-.7,15.3-3.5,14.9-7.7,29.7-11.6,44.5-2.9,11-6.7,21.7-8.9,32.8-4.3,22.3-8.1,44.8-11.5,67.3-2.2,14.4-4.2,28.9-5.2,43.4-1.3,17.3-1.4,34.7-2.1,52-.5,11.2-1,22.4-1.8,33.6-.1,2-1.9,3.9-2.9,5.8-.7-.2-1.5-.3-2.2-.5-.2-5.8-.6-11.5-.7-17.3,0-13.9-.6-27.8,0-41.6.7-15.1,2.4-30.2,3.9-45.3,1.2-12,2.1-24.1,4-36,3.2-19.9,6.4-39.9,10.7-59.6,4.6-20.8,10.6-41.2,15.9-61.8,1.9-7.5,3.7-15.1,5.6-22.6,1.8-6.9-.8-13.1-2.9-19.3-5.5-15.9-5.4-32-2.3-48.4,3.2-16.5,17-15,25.8-7.7.5.4.9.9,2,1.8v-8.2c-3.9-.6-8.1-.6-11.6-2.1-9.4-4.1-18.3-9.3-27.6-13.4-14.6-6.5-23.7-17.7-28.9-32.3-1.3-3.5-1.8-7.4-1.9-11.2-.6-13.6.4-27.2,9-38.6,6.6-8.7,15.7-14.3,25.2-19.8,13.5-7.9,28.3-11,43.1-13.6,8-1.4,16.6.7,24.9,1.5,23.7,2.2,39.8,17.4,54.5,33.7,11.1,12.3,12.5,27.7,7.9,43.6-1.3,4.6-2.3,9.3-4.1,13.6-1.8,4.2-4.5,8-7.1,12.5,9.1,3.9,9.2,12,9,20.2-.2,9.5-3.7,17.6-10.3,24.5-3.2,3.3-6,7-9.4,11,6.9,1,12.6,3,15.1,9.3,1.3,3.4,2.7,7.5,2,10.8-1,4.3.5,6.7,3.2,9.3,5.5,5.4,5.7,14.2.5,20.1,4.2,5.8,5.7,11.4,2.7,18.9-3,7.4-5.7,14.7-10.5,21.1-2.2,2.9-4.7,6-7.7,8-8.4,5.6-8.9,14.1-8.9,22.8,0,11.4,0,22.9.5,34.3.8,16.2,2.3,32.4,3.4,48.5.6,8.8.9,17.7,1.4,26.5,1,18.3,2.4,36.6,3.1,54.9.5,13.4,0,26.8.1,40.2,0,6.4.8,12.8,1.2,19.2,0,.8-.3,1.5-.4,2.3h-7ZM114,226.4c1-1.9,2.1-3.3,2.6-5,1.9-6.3,4.3-12.2,10.4-15.7.9-.6,1.9-1.6,2.3-2.6,2.3-5.4,7.3-7.6,12-9.8,5.2-2.4,8.6-6.1,10.6-11.1,2.1-5,4-10.1,5.4-15.3,2.7-10.4,4.2-21.1-1.2-30.9-3.3-6-7.4-11.8-12.2-16.5-11.7-11.5-24.2-22.1-41.4-24.5-2.8-.4-5.7-.3-8.3-1.1-6.9-1.9-13.7-2.2-20.6-.4-4.3,1.1-8.8,1.4-13.1,2.5-4.4,1.1-8.8,2.4-13,4.2-5.4,2.4-10.5,5.6-15.9,8.1-9.5,4.4-15.8,11.9-19.5,21.2-2.5,6.3-3.5,13.3-4.3,20-1.8,15.4,3.7,28.5,15.4,38.4,5.8,4.9,12.7,8.7,19.4,12.4,9.2,5.1,18.1,11.1,29.4,10.9,3.8,0,6.1,2.5,6,6.9-.1,14.8,1.2,29.6,4.5,44,.4,1.8,2.2,4.5,3.6,4.7,6,.7,12.2,1,18.2.5,4-.3,8.4-1.3,11.7-3.5,4.5-2.9,8.1-7.2,12-10.9.7-.7,1.2-1.8,2.4-3.8-3.6,0-6.2-.3-8.8,0-10,1.5-20,3.3-30,4.7-1.8.3-3.8-.6-5.8-.9,1.3-2.1,2.2-4.7,4-6.2,2.5-2.1,5.6-3.5,8.6-4.8,1.3-.6,3,0,4.5,0,.1.6.2,1.1.3,1.7-1.5.9-3,1.9-4.4,2.9.2.3.5.5.8.8,6-.9,12-1.9,18.4-2.9-1.1-2.9-2.9-5.5-2.9-8.2-.1-4.2-2.2-4.7-5.4-4.2-7.1,1.1-14.2,2.5-21.4,3.5-2,.3-4.2-.5-6.3-.8.9-1.8,1.4-4,2.8-5.2,2.3-2,5.2-3.3,7.7-4.9,3.9,3.7,10.2,3.7,13.7.9-5-18.1-9.8-35.8-14.8-53.9-1.8.4-4.6.9-7.1,1.4,1.5,7.4,2.4,14.5,4.3,21.2,2,7.3-.2,15.4,4.9,22.1.9,1.2.5,4.4-.6,5.7-1.3,1.6-3.8,2.6-5.9,3.1-.5.1-2.1-2.8-2.5-4.4-.7-3.7-.7-7.5-1.4-11.2-2.1-11.2-4.5-22.4-6.4-33.6-.6-3.6-1.8-5.2-5.4-6.4-9.9-3.1-20.2-12-18.6-22.1.6-4.1,4.5-9.6,8.6-10.4,4.3-.8,8,1.2,10.1,4.9,3.3,6.1,6.4,12.3,8.8,18.7,1.5,4,3.4,5.8,7.6,5.2,1.2-.2,2.5,0,4,0,.2-4.3.6-8.4.7-12.5.2-9.4,9.5-18.8,18.7-18.3,4.3.2,7.5,2.6,9.6,6.6,3.2,6.2,1.1,11.8-1.6,17.1-2.8,5.6-8.8,6.9-13.9,9.3-2.6,1.2-5.8,1.8-4.7,6.1,2.8,11,5.3,22,8.1,33,1.5,5.9,3.4,11.8,5.5,19.1h0ZM155.9,212.3c-.4-.1-.9-.3-1.3-.4,0-2.4.3-4.9-.1-7.3-.4-2.2-1.3-5.6-2.6-5.9-2-.5-4.9.7-6.7,2.1-3.6,2.8-6.5,6.7-10.2,9.2-9,6-13,14.1-12.7,24.8.1,4.2,2,7.1,5.4,8.6,3.8,1.7,7.8.9,10.5-2.2,4.4-4.9,8.7-10,12.2-15.5,2.5-4,3.7-8.9,5.4-13.3h0ZM119.9,277.5c-.1,6.9,4.7,11,11.3,10.7,10.6-.5,21-10.4,21.5-22.8.3-8.7-2.7-12.8-11.3-11.2-4.9.9-10,4-13.6,7.6-4.1,4.1-9,8.6-8,15.7h0ZM98.2,164.1c11.5-2.5,15.8-6.7,16.3-14.2.3-4-.6-7.9-4.8-8.6-3.3-.5-7.3.7-8.2,5.1-1.2,5.6-2.1,11.2-3.3,17.7ZM134.7,303.5c8.7-.2,15.5-4.1,21.4-9.9,4.4-4.2,4.8-8.1,1.8-12.2-5.9,3.9-11.5,8.4-17.8,11.5-5.1,2.5-7.2,5.4-5.5,10.7h0ZM159,301.5c-2.9,1.7-5.4,3.5-8.2,4.8-3,1.3-6.1,2.6-9.3,3-2.7.4-4.6,1.1-4.4,4,.1,2.5-.2,5,3.6,6,6.4,1.6,12.7-.5,17.8-6.8,2.8-3.5,3.1-7,.5-11h0ZM61.4,143.8c-3,8,1.1,14.7,11,17.9-3.1-6.5-3.4-14.3-11-17.9Z"/>
  <path d="M1025.5,593.9c-.1-15.3-4.9-29.4-12.3-42.4-8.1-14.3-18-27.7-26.2-42-8.1-14.3-18.3-26.6-30.7-37.2-5.3-4.6-10.7-9-16.2-13.3-4.1-3.2-7.4-6.8-9.4-11.8-1.4-3.5-4.1-6.5-6-9.8-1.4-2.5-1-4.3,2.3-3.9,14.8,2.1,27.3-5.1,40.4-9.7,1.6-.5,2.9-1.9,4.2-3.4-7.7-1.7-15.2-2.2-22.5.5-3.8,1.4-5.9-.2-7-3-.3-.7,2.5-3.3,4.3-4,9.2-3.6,18.5-6.6,27.6-10.3,3.6-1.4,6.7-3.9,10.1-5.8-.1-.8-.3-1.5-.4-2.3-4.5,0-9.1-.9-13.4,0-7.6,1.4-15,3.7-22.4,5.8-4.5,1.2-9,4.4-13.1-2.1.3-.3,1.2-1.8,2.5-2.5,8.6-4.1,17.4-7.7,25.9-12,6.6-3.4,13-7.2,18.8-11.7,2.5-1.9,3.2-6,4.9-9.6-5.5-3.3-11.6-2.5-16.6-.7-10.5,3.7-20.5,8.6-30.5,13.5-5,2.4-9.3,6.1-14.1,8.9-1.9,1.1-4.3,1.4-7.2,2.3,0-6.7-.2-12.1,0-17.4.5-8.8-3.3-16.3-6.7-23.8-4.3-9.5-18.6-15.2-28.9-12.9-5.1,1.2-4.7,5.4-5.5,8.9-.8,3.7,2,4.2,4.6,5.1,3.3,1.1,6.5,2.6,9.5,4.4,6.8,4.3,8.1,15.4,2.9,22.5-9.5,13-27.1,10.5-36,.9-4.2-4.5-2.7-10.8-1.6-16.5.1-.6.5-1.2.7-1.9,1.8-3.7,3.8-8.4-.8-10.3-2-.9-7.2,2.6-9.2,5.4-6.9,10.1-10.7,21.3-11.3,33.8-.5,12.9.2,25.5,5.1,37.5,5,12.1,12.1,22.9,21.2,32.4,10.4,10.8,21.1,21.3,30.8,32.6,6.2,7.2,11.2,15.5,16.4,23.5,4,6.1,7.8,12.3,11.1,18.8,4,8,7.6,16.2,10.7,24.5,4.8,13,9.1,26.2,13.5,39.3h-8c-3.5-10.1-6.7-20.3-10.5-30.4-2.8-7.7-5.6-15.6-9.6-22.8-6.9-12.5-14.4-24.7-22.1-36.7-4.1-6.5-8.7-12.8-13.9-18.3-6.3-6.7-13.6-12.4-20.2-18.7-2.2-2.1-3.5-5-5.4-7.4-8.5-10.8-16.2-22.2-21.6-34.9-5.5-13-7.4-26.5-7.1-40.6.2-9.8,1-19.3,6.8-27.3,4.2-5.7,9.4-10.9,14.8-15.5,2-1.6,5.9-1.2,9-1.2,2.1,0,4.1.8,6.7,1.4,3.2-6.9,6.4-13.6,9.2-20.4.5-1.2-.2-3.2-.9-4.5-6.6-12.4-12.8-25.2-13.4-39.2-.7-16.3.8-32.4,12.7-45.8,11.4-12.8,24.6-22.9,40.8-28,12.7-4,26.3-5.3,39.1-9,16.2-4.6,32.1-10.4,48-15.9,2.3-.8,4.2-2.6,6.4-3.8,1.6-.8,3.2-1.4,4.9-2.1.7,1.9,2.2,4,2,5.8-1.6,16.1-3.3,32.1-5.3,48.1-1.6,12.6-3,25.4-5.5,37.8-1.3,6.5-4.3,13-7.9,18.6-13.4,20.4-30.2,36.9-55.3,41.8-7.4,1.4-15,1.4-22.5,1.8-5.8.3-11.7,0-17.8.7,8.5,4.9,16.9,10,20.7,19.2,3.6,8.8,6,18.2,8.8,27.1,14.1-7.9,29.1-17,46.9-18.6,4.6-.4,9.8.6,14.1,2.5,5.5,2.4,5.4,5.8,3.4,11.4-2.4,6.7-6.7,11-12.9,13.9-2,1-3.8,2.6-6.3,4.3,4.5,1.2,8.2,1.9,11.8,3.1,3.3,1,6.7,2.8,5.9,6.8-.5,2.7-2.2,5.9-4.5,7.4-4.9,3.3-10.4,5.5-16.2,8.5,1.2.5,1.9.9,2.7,1,3.5.7,7.1,2.1,7,5.8,0,2.4-2.4,5.2-4.4,7.1-2.1,2-4.9,3.4-7.7,4.4-7.4,2.7-14.8,5.1-22.3,7.6-2.6.9-5.3,1.5-9.1,2.6,1.8,2.2,3.1,4.4,4.9,6.1,14,13.7,28.7,26.7,41.9,41.1,9.6,10.5,17.6,22.6,25.4,34.6,6.8,10.4,13.1,21.2,18.2,32.5,4.6,10.3,7.2,21.5,10.8,32.3.6,1.9,1.5,3.7,2.3,5.5h-15,0ZM877.6,314.3c5-6.7,9-13.3,14.3-18.7,10.8-10.9,22.2-21.3,33.5-31.6,13.9-12.8,28.6-24.7,41.8-38.2,10.7-10.9,19.7-23.5,29.5-35.3-.3-.4-.6-.7-.8-1.1-4.6,1.6-9.2,3.4-13.9,4.6-16.4,4.4-32.7,9.6-49.4,12.7-18.9,3.5-35.8,10.4-49.1,24.3-6.5,6.9-13.6,13.8-15.7,23.7-1,4.8-1.3,9.8-1.9,14.7-1.9,16.2,4.5,30.2,11.7,44.8h0ZM1006.4,188.7c-.4-.3-.8-.5-1.2-.8-.5.9-1,1.7-1.4,2.6-7.3,13.4-16.2,25.5-26.7,36.6-10.5,11.1-20.5,22.8-31.2,33.6-10.7,10.8-22.1,20.8-32.9,31.4-8.4,8.2-16.4,16.9-25.3,26.2,3.3.9,5,1.8,6.6,1.8,11.5-.1,23-.4,34.5-.7,12.9-.3,24.1-6.1,34.8-12.4,6.5-3.8,11.5-10.4,16.8-16,6.8-7.3,12.1-15.7,15.5-24.9,2.4-6.5,3.2-13.8,4-20.8,2.3-18.8,4.3-37.6,6.5-56.4h0ZM876.4,351.4c-.8,3.7-1.2,7.2-2.4,10.5-2,5.4-6.8.7-9.9,2.2-1.5,7.9.6,10.5,10,12.8,6,1.5,13.3-3.8,15-10.6,2.2-9.2.3-11.5-12.8-14.9h0Z"/>
  <path d="M350.4,176.2c-3.1,6.6-6.1,13.2-9.3,19.7-3.9,7.9-7.8,15.7-11.9,23.4-1.9,3.7-5.5,3-8.4,2.1-3.2-1-6.2-3.1-9.2-4.8-6.3-3.6-12.5-7.2-18.9-10.8-3.6-2-7.4-3.7-10.8-5.9-2.6-1.6-1.8-3.4.5-5,2-1.4,4.4-2.6,5.7-4.6,9.3-13.7,18-27.8,27.7-41.2,5.8-8.1,12.7-15.6,19.7-22.7,7.2-7.3,15.4-6.6,23.2-2.5,1.7.9,2.8,3.1,4.2,4.7,9.1,11.2,18.2,22.3,27.1,33.6,2.6,3.3,4.4,7.3,6.7,11,5.7,9.1,11.1,10.5,22.2,6.2,4.8-1.8,9.6-3.4,14.6-4.7,3.7-1,7.7,4.4,6.7,9.5-1.6,9-3.8,17.9-5.5,26.9-1.7,9.1-3.1,18.2-4.6,27.3-1,6.3-2.4,8.1-8.8,7.2-7.3-.9-14.9-2-21.7-4.8-13.7-5.7-27-12.5-40.4-19-4.9-2.4-4.9-5-.3-7.7,4.6-2.7,9.2-5.2,13.9-7.7,2.6-1.4,2.5-3.3.9-5.3-7-8-14.2-15.9-21.3-23.9-.3-.3-.9-.5-2.1-1.1h0ZM394.3,198.3c-.8-5.2-.5-9.3-2-12.4-3.2-6.5-7.1-12.7-11.1-18.7-7-10.4-13.5-21.4-21.6-30.8-9.9-11.5-10.5-10-18.8.4-5.5,7-11.9,13.7-16,21.5-6.5,12.3-14.6,22.8-25.5,31.4-3.1,2.4-5.4,5.8-7.9,8.6,9.6,4.8,18.3,8.9,26.7,13.4,3.2,1.7,4.7.3,6-2.1,7.1-13.1,14.2-26.2,21.3-39.3,2.5-4.6,7.2-4.6,10.6-.4,8.8,10.8,17.8,21.3,26.9,31.8,3,3.5,3.1,4.8-.7,7.1-4.4,2.8-8.7,5.8-13.9,9.2,18.2,6.9,35.8,13.5,53.6,20.3,2.6-18.7,5.2-36.5,7.9-55.8-11.8,8.7-24.1,12.2-35.5,15.8h0Z"/>
  <path d="M138.9.4c-1.2,8.5-2,17-3.7,25.4-2.5,13-5.7,25.8-8.5,38.7-.6,2.9-.7,5.9-1.5,8.8-.4,1.5-1.9,2.7-2.8,4-1.9-1.4-5.7-1.1-4.9-5,1-5.3,1.9-10.7,3.1-16,3.9-17,7.8-33.9,12-50.8.5-2.1,3.1-3.8,4.7-5.7.5.1,1.1.3,1.6.4h0Z"/>
  <path d="M78.6,76.4c-8.6-.2-7.1-5.9-7.3-10.4-.4-11.2-.6-22.4-.9-33.5,0-4.5-.2-9,0-13.5,0-1.3,1.3-2.6,2.1-3.9,1.3,1.1,3.4,1.9,3.7,3.2.9,4.2,1.5,8.6,1.7,12.9.5,13.1.9,26.2,1.2,39.3,0,1.9-.4,3.8-.6,5.8h0Z"/>
  <path d="M23,17.3c3.2,5.4,7,10.6,9.4,16.3,5.3,12.4,9.8,25.2,14.6,37.8,1.5,4,.2,5-6.6,4.8-5.8-19.5-15.4-37.8-20.1-57.7.9-.4,1.8-.8,2.7-1.2Z"/>
  <path d="M149.4,68.4c4.9-10.2,9.1-21,18.2-28.7l1.5.5c-1.6,4.8-3,9.6-4.9,14.3-1.8,4.4-4,8.7-6.2,13-2.5,4.8-4.1,5-8.7.9h0Z"/>
</svg>
