<?xml version="1.0" encoding="UTF-8"?>
<svg id="Calque_2" data-name="Calque 2" xmlns="http://www.w3.org/2000/svg" viewBox="0 0 373.31 75.41">
  <defs>
    <style>
      .cls-1 {
        fill: #111;
      }
    </style>
  </defs>
  <g id="Calque_1-2" data-name="Calque 1">
    <g>
      <path class="cls-1" d="M67.12,75.41c-4.95,0-9.33-1.05-13.14-3.16-3.81-2.11-6.79-5.13-8.92-9.07-2.14-3.94-3.21-8.69-3.21-14.24v-.6c0-5.08,1.14-9.53,3.41-13.34,2.27-3.81,5.3-6.78,9.08-8.92,3.78-2.14,7.97-3.21,12.58-3.21,4.28,0,7.95.74,11.03,2.21,3.07,1.47,5.6,3.38,7.57,5.72,1.97,2.34,3.44,4.9,4.41,7.67.97,2.77,1.45,5.46,1.45,8.07v6.72h-36.5c.13,2.94,1.37,5.37,3.71,7.27,2.34,1.91,5.11,2.86,8.32,2.86s5.57-.57,7.27-1.71c1.71-1.14,2.89-2.44,3.56-3.91l10.83,6.02c-.74,1.67-1.96,3.41-3.66,5.21s-4,3.33-6.87,4.56c-2.88,1.24-6.52,1.86-10.93,1.86ZM55.09,42.42h23.46c-.4-2.34-1.65-4.28-3.76-5.82-2.11-1.54-4.76-2.31-7.97-2.31s-5.73.82-7.77,2.46c-2.04,1.64-3.36,3.53-3.96,5.67Z"/>
      <path class="cls-1" d="M235.22,75.41c-4.95,0-9.33-1.05-13.14-3.16-3.81-2.11-6.79-5.13-8.92-9.07-2.14-3.94-3.21-8.69-3.21-14.24v-.6c0-5.08,1.14-9.53,3.41-13.34,2.27-3.81,5.3-6.78,9.08-8.92,3.78-2.14,7.97-3.21,12.58-3.21,4.28,0,7.95.74,11.03,2.21,3.07,1.47,5.6,3.38,7.57,5.72,1.97,2.34,3.44,4.9,4.41,7.67.97,2.77,1.45,5.46,1.45,8.07v6.72h-36.5c.13,2.94,1.37,5.37,3.71,7.27,2.34,1.91,5.11,2.86,8.32,2.86s5.57-.57,7.27-1.71c1.71-1.14,2.89-2.44,3.56-3.91l10.83,6.02c-.74,1.67-1.96,3.41-3.66,5.21s-4,3.33-6.87,4.56c-2.88,1.24-6.52,1.86-10.93,1.86ZM223.19,42.42h23.46c-.4-2.34-1.65-4.28-3.76-5.82-2.11-1.54-4.76-2.31-7.97-2.31s-5.73.82-7.77,2.46c-2.04,1.64-3.36,3.53-3.96,5.67Z"/>
      <path class="cls-1" d="M352.66,75.41c-5.15,0-9.31-.84-12.48-2.51-3.18-1.67-5.58-3.71-7.22-6.12-1.64-2.41-2.69-4.75-3.16-7.02l11.63-3.81c.53,2.07,1.67,3.93,3.41,5.56,1.74,1.64,4.34,2.46,7.82,2.46,3.14,0,5.3-.48,6.47-1.45,1.17-.97,1.75-2.02,1.75-3.16,0-1.34-.7-2.51-2.11-3.51-1.4-1-4.21-1.67-8.42-2.01-5.55-.47-9.99-1.94-13.34-4.41-3.34-2.47-5.01-6.05-5.01-10.73v-.6c0-3.27.9-6.05,2.71-8.32,1.81-2.27,4.14-3.99,7.02-5.16,2.87-1.17,5.92-1.75,9.12-1.75,4.21,0,7.69.65,10.43,1.96,2.74,1.3,4.9,2.92,6.47,4.86,1.57,1.94,2.69,3.88,3.36,5.82l-11.43,4.61c-.6-1.8-1.64-3.22-3.11-4.26-1.47-1.04-3.38-1.55-5.72-1.55-2.07,0-3.66.39-4.76,1.15-1.1.77-1.66,1.72-1.66,2.86,0,1.6.84,2.74,2.51,3.41,1.67.67,4.71,1.27,9.12,1.8,5.08.54,9.23,2.06,12.43,4.56,3.21,2.51,4.81,6,4.81,10.48v.6c0,4.88-1.8,8.81-5.42,11.78-3.61,2.98-8.69,4.46-15.24,4.46Z"/>
      <path class="cls-1" d="M178.38,74l.12-37.7h-16.85v-12.04h29.48s-.12,49.74-.12,49.74h-12.63ZM184.72,19.05c-2.61,0-4.85-.92-6.72-2.76-1.87-1.84-2.81-4.09-2.81-6.77s.94-4.93,2.81-6.77c1.87-1.84,4.11-2.76,6.72-2.76s4.85.92,6.72,2.76c1.87,1.84,2.81,4.1,2.81,6.77s-.94,4.93-2.81,6.77c-1.87,1.84-4.11,2.76-6.72,2.76Z"/>
      <path class="cls-1" d="M307.16,15.84h12.68V3.81h-15.29c-2.87,0-5.5.98-7.87,2.95-2.37,1.98-3.86,4.4-4.46,7.27l-2.21,10.23h-16.74v12.03h14.14l-8.38,37.71h12.57l8.44-37.71h19.8v-12.03h-17.19l1.2-5.41c.4-2.01,1.5-3.01,3.31-3.01Z"/>
      <polygon class="cls-1" points="29.48 24.26 22.86 24.26 0 24.26 0 36.29 0 61.97 .01 74 12.63 74 12.63 61.97 12.63 36.3 22.86 36.3 22.86 36.29 29.48 36.29 29.48 24.26"/>
      <polygon class="cls-1" points="151.15 61.97 134.91 61.97 134.91 3.81 105.43 3.81 105.43 15.84 122.27 15.84 122.27 61.97 105.43 61.97 105.43 74 134.87 74 151.15 74 151.71 74 151.71 61.97 151.15 61.97"/>
    </g>
  </g>
</svg>